# xmcd
#
# Track frame offsets:
#	150
#	20431
#	35953
#	56722
#	80703
#	101360
#	120753
#	138125
#	152970
#	174581
#	194322
#
# Disc length: 2815 seconds
#
# Revision: 0
# Processed by: cddbd v1.5.2PL0 Copyright (c) Steve Scherf et al.
# Submitted via: dBpowerAMP V4.0
#
DISCID=8d0afd0b
DTITLE=Kate Schutt - No Love Lost
DYEAR=2007
DGENRE=Roots
TTITLE0=How Much in Love
TTITLE1=Wrecking Ball
TTITLE2=Mary
TTITLE3=Peter Please
TTITLE4=Raining
TTITLE5=Calamity
TTITLE6=I'm Yours
TTITLE7=Two Halves
TTITLE8=The Moon Got Broken
TTITLE9=The Young
TTITLE10=Glamorous Life
EXTD=
EXTT0=
EXTT1=
EXTT2=
EXTT3=
EXTT4=
EXTT5=
EXTT6=
EXTT7=
EXTT8=
EXTT9=
EXTT10=
PLAYORDER=
